<svg width="364" height="390" viewBox="0 0 364 390" fill="none" xmlns="http://www.w3.org/2000/svg">
<g clip-path="url(#clip0_6_2)">
<path d="M40.5254 389.496C35.1867 388.05 32.4264 385.694 18.2152 370.516C1.28919 352.43 0.212357 350.659 0.273024 341.234C0.273024 330.753 -2.69964 334.506 51.3544 276.461C105.954 217.831 103.149 220.383 112.992 220.415C117.572 220.415 118.725 220.675 122.395 222.69L126.596 224.965L153.047 196.625L149.741 191.051C143.295 180.294 137.228 164.58 134.483 151.58C130.692 133.449 130.739 114.638 134.62 96.5291C138.502 78.42 146.12 61.4722 156.914 46.93C194.679 -3.77 262.459 -15.015 312.524 21.125C340.006 40.9175 357.873 71.4837 362.999 107.477C364.061 115.066 364.061 133.136 362.999 141.18C359.62 168.357 347.847 193.539 329.557 212.713C321.087 222.133 311.105 229.845 300.088 235.479C285.543 243.328 273.167 247.016 256.393 248.527C232.535 250.656 206.039 243.571 185.777 229.629L180.574 226.086L154.124 254.426L156.247 258.976C158.143 262.893 158.37 264.111 158.37 269.003C158.416 279.581 160.736 276.591 106.409 334.799C64.5342 379.584 58.0884 386.214 54.873 387.79C50.7629 389.821 44.408 390.569 40.5405 389.512L40.5254 389.496ZM265.189 226.687C280.179 223.695 294.305 216.976 306.43 207.07C318.555 197.163 328.341 184.346 335.001 169.65C356.098 122.541 341.902 67.1775 301.225 37.895C291.549 30.9075 278.035 24.9925 265.326 22.2625C256.514 20.3612 237.889 20.5725 228.713 22.6687C215.345 25.6511 202.689 31.5353 191.525 39.9587C184.791 45.0775 173.674 56.9887 168.972 64.1225C156.3 83.111 149.976 106.124 151.022 129.44C152.068 152.756 160.423 175.012 174.735 192.611C189.955 211.38 210.943 223.693 233.9 227.321C241.62 228.589 257.287 228.264 265.22 226.72L265.189 226.687ZM208.496 346.548C197.348 343.19 186.245 339.663 175.19 335.969C174.811 335.514 193.496 264.534 194.255 263.672C194.604 263.25 258.592 282.392 261.2 283.757C262.141 284.18 261.155 288.437 253.238 317.915C249.995 330.017 246.784 342.128 243.607 354.25C243.228 355.664 242.561 356.785 242.136 356.785C241.711 356.736 226.545 352.121 208.481 346.531L208.496 346.548ZM252.662 355.063C252.662 354.201 271.271 284.651 271.559 284.424C272.272 283.871 337.14 264.436 337.398 264.745C337.686 265.054 319.213 335.221 318.743 335.595C318.439 335.904 256.165 354.949 254.148 355.388C253.329 355.566 252.662 355.387 252.662 355.079V355.063ZM144.902 324.009C157.733 310.164 169.154 297.57 170.291 295.929C172.885 292.386 176.434 284.034 177.45 279.435C177.844 277.517 178.254 273.715 178.33 270.952L178.497 265.964L181.257 265.135C182.819 264.68 184.184 264.42 184.321 264.582C184.669 264.989 166.014 334.799 165.423 335.433C165.12 335.693 155.155 338.894 143.219 342.517L121.606 349.099L144.918 324.041L144.902 324.009ZM270.619 274.284C270.253 273.295 269.954 272.279 269.724 271.245L269.057 268.71L271.423 268.255C291.731 264.566 313.525 254.345 330.694 240.419C333.121 238.388 334.516 237.64 334.713 238.241C335.532 240.923 338.839 253.679 338.732 253.825C338.217 254.377 270.786 274.658 270.604 274.316L270.619 274.284ZM41.86 253.159C41.1017 252.525 23.9785 190.336 22.6894 183.446C22.4467 182.081 24.9037 182.731 55.6617 192.156C87.8302 201.971 88.907 202.377 89.362 204.181C89.7867 205.774 89.5289 206.278 87.4662 207.805C86.1922 208.764 75.803 219.57 64.3674 231.839C57.446 239.358 50.418 246.763 43.2857 254.052C43.043 254.052 42.4364 253.646 41.8752 253.175L41.86 253.159ZM54.3119 182.016C36.2939 176.443 21.4912 171.892 21.4457 171.844C21.203 171.649 40.5709 99.8075 40.9349 99.3687C41.2685 99.0112 108.002 119.048 108.715 119.714C108.851 119.86 104.635 136.24 99.3417 156.097C90.6057 188.922 89.5895 192.238 88.3762 192.173C87.6179 192.124 72.3147 187.541 54.2967 182L54.3119 182.016ZM99.19 190.759C99.372 190.255 102.405 179.01 105.924 165.831L112.294 141.846L113.143 147.063C114.554 156.098 117.163 166.368 120.181 175.354C121.788 180.164 123.017 184.113 122.926 184.21C122.805 184.308 117.891 185.851 112.021 187.655C106.121 189.426 100.783 191.068 100.1 191.295C99.2204 191.555 98.9625 191.392 99.2052 190.742L99.19 190.759ZM74.3925 99.32C56.3897 93.8113 41.5264 89.0013 41.3292 88.6925C40.7225 87.685 22.4315 18.4762 22.6742 18.2C23.0685 17.7937 88.0425 37.765 88.6644 38.4475C89.3772 39.2762 108.078 109.606 107.562 109.558L74.4684 99.3362L74.3925 99.32ZM106.971 71.4838L99.099 42.1362L97.916 37.5862L123.593 29.7375C137.759 25.4312 149.741 21.6937 150.287 21.4825C150.802 21.2225 149.028 23.7575 146.343 26.9425C132.305 43.5091 122.124 63.3991 116.632 84.9875C115.777 87.9755 115.108 91.0209 114.63 94.1037C114.63 98.865 112.886 93.6975 106.971 71.5163V71.4838Z" fill="white"/>
</g>
<defs>
<clipPath id="clip0_6_2">
<rect width="364" height="390" fill="white"/>
</clipPath>
</defs>
</svg>
