<svg version="1.1" id="Layer_1" xmlns="http://www.w3.org/2000/svg" xmlns:xlink="http://www.w3.org/1999/xlink" x="0px" y="0px"
	 width="100%" viewBox="0 0 768 1024" enable-background="new 0 0 768 1024" xml:space="preserve">
<path fill="#000000" opacity="1.000000" stroke="none" 
	d="
M68.531342,1.000000 
	C65.372437,4.832603 60.413700,3.306262 56.191608,3.631998 
	C39.028141,4.956166 21.810499,5.579683 4.611878,6.442572 
	C3.631226,6.491773 2.642119,6.372456 1.328474,6.165785 
	C1.000000,4.343387 1.000000,2.686773 1.000000,1.000000 
	C23.354219,1.000000 45.708450,1.000000 68.531342,1.000000 
z"/>
<path fill="#000000" opacity="1.000000" stroke="none" 
	d="
M354.437592,542.312805 
	C360.828400,538.808472 366.924316,535.514465 373.043488,532.207825 
	C372.203491,528.859436 369.989807,529.151550 367.826294,529.233765 
	C358.458160,529.589722 349.503418,532.459167 340.286407,533.724487 
	C338.475861,533.973083 336.644501,534.073486 334.836426,534.336243 
	C331.795013,534.778137 329.925385,533.393066 329.433228,530.522095 
	C328.927063,527.569641 331.549896,526.961487 333.487061,526.323547 
	C340.246735,524.097595 347.082458,522.103455 353.878113,519.985474 
	C356.572510,519.145691 359.268097,518.292542 361.906860,517.296509 
	C364.200409,516.430664 365.600708,515.178040 365.586304,512.168701 
	C365.548523,504.293030 371.496613,497.525482 379.167328,495.841736 
	C382.938293,495.013977 386.713745,494.535583 390.568085,494.830536 
	C392.956024,495.013245 394.554077,496.303436 395.558807,498.439606 
	C396.599854,500.653046 394.914825,501.824127 393.775940,503.183441 
	C391.867279,505.461456 389.645538,507.436462 389.108276,510.683716 
	C388.729401,512.973755 386.338562,513.325012 384.485046,513.996887 
	C381.518341,515.072266 378.492493,515.996033 375.571686,517.181213 
	C374.358734,517.673401 373.107910,518.686157 373.687561,520.269043 
	C374.271301,521.863159 375.731079,521.520508 377.106659,521.386780 
	C386.734253,520.450989 396.059052,517.948730 405.458496,515.875244 
	C419.527985,512.771545 433.771484,510.459869 447.899872,507.770142 
	C455.611267,506.302094 462.485352,502.789429 470.103333,501.611084 
	C473.815186,501.036957 477.008331,499.441071 479.605988,496.592163 
	C481.347687,494.682007 483.668701,493.671844 485.533264,496.239990 
	C487.248749,498.602875 485.322693,500.372284 483.534729,501.602539 
	C481.078400,503.292755 478.408142,504.596619 475.569946,505.681030 
	C461.686462,510.985626 447.134460,513.157471 432.585815,515.590942 
	C422.345947,517.303711 412.287903,520.085144 402.121796,522.264160 
	C395.316711,523.722839 388.465271,524.965759 381.632721,526.295593 
	C380.347717,526.545715 378.966461,526.561401 377.858490,528.369141 
	C381.009277,531.823486 385.190033,530.270081 388.233856,529.335205 
	C397.354614,526.533813 406.629089,526.651978 415.909393,526.726074 
	C421.135498,526.767761 426.303314,526.719910 431.634369,528.132202 
	C435.735931,529.218750 440.587372,526.429749 445.343689,526.856506 
	C462.650909,528.409729 479.992523,529.727051 496.054993,537.292114 
	C499.247498,538.795776 503.642578,539.418701 502.989197,544.372070 
	C502.495972,548.111267 495.244995,551.537964 490.351440,550.708130 
	C490.157501,548.181702 492.473450,548.136169 493.837616,547.143921 
	C496.527771,545.187195 496.355652,542.887695 493.327911,541.505554 
	C487.321960,538.763794 481.557831,535.175354 474.447693,536.176758 
	C473.201477,536.352173 471.782043,535.916504 470.548828,535.469788 
	C457.571991,530.769104 444.107361,531.447205 430.655701,531.615662 
	C423.338806,531.707336 416.016479,531.250916 408.695129,531.139221 
	C400.505280,531.014282 392.616821,532.449646 384.824768,536.145264 
	C404.078491,557.378784 428.322479,561.412781 455.694305,556.186218 
	C454.623779,559.846252 452.769012,560.384827 451.088806,560.591370 
	C438.065552,562.192200 425.050049,563.834290 412.145172,559.550415 
	C402.016693,556.188171 393.234070,550.457336 385.385193,543.554077 
	C380.191895,538.986389 375.447479,538.851135 369.524109,541.183350 
	C359.873230,544.983276 351.527252,550.264404 346.157776,559.435913 
	C345.533386,560.502441 344.264130,561.421631 345.075012,563.248840 
	C347.724762,563.152832 350.028320,561.772827 352.423279,560.798889 
	C361.219727,557.221497 369.902039,557.395142 376.284882,564.743652 
	C380.938965,570.101868 386.573273,571.316162 392.689270,572.491455 
	C393.342102,572.616943 394.043335,572.554260 394.668091,572.750732 
	C397.279236,573.572021 400.274689,574.746826 399.652588,577.908081 
	C399.034698,581.047791 395.932495,580.598328 393.398499,580.129395 
	C390.647247,579.620361 387.905640,579.059143 384.850647,578.460144 
	C383.620819,584.437073 385.439606,590.099854 384.404327,595.570679 
	C386.020477,596.092407 386.513489,595.280273 387.049652,594.716431 
	C392.481934,589.003479 395.630768,589.728394 398.608459,597.350037 
	C402.478699,607.256348 403.053131,617.762634 404.286652,628.150940 
	C404.759674,632.134583 404.881348,636.132507 404.082581,640.071777 
	C402.592957,647.418030 397.065063,649.491211 391.415894,644.710327 
	C385.728638,639.897278 380.258942,634.827026 374.754700,629.923645 
	C365.258850,636.663635 365.167114,640.426819 371.104309,649.748840 
	C378.330536,661.094849 385.157074,672.816895 390.852631,684.986572 
	C398.456970,701.234558 405.406982,717.834412 410.691803,735.046143 
	C411.130951,736.476257 411.710571,737.889954 411.923889,739.355103 
	C412.138214,740.827148 412.099731,742.441406 410.604309,743.384277 
	C409.053619,744.362000 407.702789,743.498413 406.475403,742.624451 
	C402.258942,739.622437 398.303436,736.320557 394.887756,732.400879 
	C393.382294,730.673340 391.784302,729.026367 390.205261,727.317932 
	C384.891418,730.170471 383.239105,735.088928 381.735016,739.697083 
	C377.812805,751.713745 375.462280,764.128174 373.046783,776.536194 
	C370.319427,790.546387 367.983185,804.630493 364.160858,818.449158 
	C361.741180,827.196838 358.539124,835.653625 355.955078,844.325806 
	C354.785156,848.252014 352.656708,851.902954 350.859222,855.628601 
	C349.554657,858.332703 347.627380,858.570251 345.135712,856.975891 
	C339.672821,853.480347 336.410461,847.922180 334.481903,842.370300 
	C331.966797,835.129639 329.995514,827.404602 330.807007,819.444763 
	C330.963837,817.906738 330.090607,815.607544 332.418762,815.348999 
	C334.927124,815.070435 334.154266,817.417053 334.581329,818.924561 
	C336.663452,826.274109 337.871155,833.884155 340.925049,840.941833 
	C341.572296,842.437622 342.514008,843.882996 343.604950,845.095154 
	C346.833008,848.681824 347.944489,848.041138 349.974182,843.584167 
	C354.878693,832.814514 357.060516,821.183289 360.928925,810.087708 
	C362.591583,805.318604 362.651917,799.624146 364.008545,794.700073 
	C366.301575,786.377319 367.489929,777.863464 369.547913,769.518127 
	C371.882812,760.049744 372.885559,750.261230 374.875305,740.696777 
	C376.505493,732.861023 378.794220,725.215332 384.884705,719.353577 
	C387.559479,716.779114 389.636719,716.452576 392.394409,719.388184 
	C395.624237,722.826294 398.387726,726.832092 403.490112,728.850464 
	C400.590240,721.156311 397.982574,713.336060 394.727722,705.795105 
	C388.541199,691.462097 382.080780,677.239197 374.214386,663.718750 
	C371.122925,658.405334 367.836761,653.205383 364.725555,647.903076 
	C362.724091,644.492126 360.543976,646.039551 358.596466,647.704407 
	C353.676422,651.910339 349.127441,656.516357 343.872498,660.373291 
	C336.458801,665.814758 328.572510,670.359924 320.105835,673.854919 
	C316.322235,675.416748 313.461487,673.265259 312.876129,668.781433 
	C312.207001,663.656250 313.797668,658.821350 315.520020,654.176025 
	C319.387360,643.745483 321.887390,632.839783 326.829742,622.766113 
	C328.542023,619.276123 328.281311,615.028320 329.892059,611.296448 
	C332.735748,604.708191 334.373627,604.004272 340.778137,607.698975 
	C348.472961,612.138062 352.585632,619.688171 357.206635,626.793640 
	C358.796600,629.238464 359.773773,632.137817 362.449799,634.307800 
	C364.669281,630.824768 367.109375,627.973999 363.143921,624.191711 
	C361.679260,622.794739 360.786163,620.481689 360.299744,618.428345 
	C357.582001,606.955872 349.069122,599.452515 341.860474,591.052124 
	C340.887970,589.918823 339.675385,588.994873 338.658905,587.895325 
	C332.014160,580.707886 331.719666,580.640564 324.738190,587.813477 
	C315.218384,597.594360 307.239594,608.745056 297.534485,618.382141 
	C291.312683,624.560364 284.596405,629.657471 276.224152,632.745605 
	C267.418640,635.993652 260.020172,633.871521 253.847427,627.665588 
	C249.634476,623.429993 246.439316,618.112732 245.222214,612.106323 
	C243.545670,603.832397 241.239349,595.495544 241.890198,587.038452 
	C242.644165,577.241089 241.973358,566.964417 249.061493,558.577332 
	C257.955231,548.053772 276.973267,539.169983 292.480255,546.899841 
	C304.851105,553.066406 316.189087,560.131409 326.292023,569.405762 
	C328.085449,571.052185 329.816956,573.331909 332.696045,572.433228 
	C335.694092,571.497375 336.021881,568.813477 336.596710,566.077820 
	C338.518616,556.931763 345.179321,550.947144 351.455750,544.760803 
	C352.282959,543.945496 353.243744,543.265686 354.437592,542.312805 
M324.333221,574.035278 
	C313.855499,565.330383 303.070953,557.238647 290.159912,552.196045 
	C274.336975,546.016296 257.600372,555.319031 252.718323,566.962280 
	C245.320694,584.604980 247.537354,601.895447 255.715836,618.544373 
	C259.850830,626.961914 268.632843,629.194641 276.471375,625.925720 
	C283.731934,622.897766 289.510315,618.166504 295.033234,612.829529 
	C305.921722,602.307678 314.115875,589.324402 325.675171,579.422119 
	C328.050568,577.387268 327.331940,575.754761 324.333221,574.035278 
M352.331726,628.165039 
	C348.965485,623.892456 346.396484,618.961182 341.510712,615.972961 
	C338.366974,614.050110 336.247009,614.398010 335.009857,617.976501 
	C330.412659,631.274414 324.282349,644.057922 321.534943,657.974487 
	C321.188354,659.730042 320.512909,661.788452 322.158203,663.140442 
	C323.787079,664.478943 325.637268,663.565979 327.316132,662.774963 
	C335.906067,658.727661 343.725708,653.512024 350.506348,646.870911 
	C358.701843,638.844055 358.624573,638.765198 352.331726,628.165039 
M395.615173,638.498352 
	C399.556000,633.163086 398.644531,627.132324 397.870514,621.229736 
	C396.959961,614.286072 396.836060,607.096436 392.807068,600.221497 
	C385.877777,607.129578 381.585327,615.090698 377.456787,623.146484 
	C377.145233,623.754395 377.251770,625.100708 377.699524,625.493896 
	C383.199799,630.323730 387.516663,636.720642 395.615173,638.498352 
M378.452606,587.416870 
	C378.867065,585.504395 377.851929,583.864868 377.445496,582.107849 
	C376.594055,578.426819 374.680603,576.742249 370.639221,577.769775 
	C363.764740,579.517700 362.279053,580.964661 362.830292,585.715881 
	C363.400238,590.628418 363.566040,595.569885 363.756653,600.517517 
	C363.941193,605.308472 363.075562,610.904358 368.261932,614.658569 
	C371.592987,611.263550 374.410767,607.808167 375.406494,603.304565 
	C376.512146,598.304016 377.296875,593.232483 378.452606,587.416870 
M345.848511,577.802063 
	C346.233887,580.955383 346.233887,580.955383 338.898376,581.015320 
	C344.974854,587.841370 350.551941,594.106445 356.903076,601.241028 
	C356.510040,594.417969 356.981293,588.733887 355.382782,583.087891 
	C353.925659,577.941406 356.356049,574.287781 361.285919,572.323059 
	C364.495148,571.044067 368.021240,571.231506 371.528687,569.874512 
	C369.998596,566.259094 366.932037,565.194458 364.129242,565.531067 
	C356.136932,566.491028 348.198639,568.022827 342.064575,573.939941 
	C342.779694,575.771545 344.196960,576.416565 345.848511,577.802063 
M359.819489,523.889038 
	C362.119476,523.384094 365.014282,524.226318 367.041809,520.078796 
	C362.348602,521.762939 358.743408,523.056641 355.138184,524.350342 
	C355.182434,524.507202 355.226654,524.664062 355.270874,524.820923 
	C356.541382,524.554871 357.811890,524.288818 359.819489,523.889038 
z"/>
<path fill="#000000" opacity="1.000000" stroke="none" 
	d="
M338.026001,417.983398 
	C339.859955,419.081299 341.963135,418.452362 343.887238,418.898468 
	C345.890106,419.362823 347.947449,420.118408 347.873779,422.628510 
	C347.802826,425.047424 346.285706,426.780640 343.916321,427.130188 
	C341.632568,427.467133 339.260559,427.353851 336.937286,427.238037 
	C333.994202,427.091370 333.040558,428.515167 333.389099,431.212463 
	C333.762878,434.105255 335.623840,433.552643 337.469604,432.961792 
	C339.393524,432.345947 341.345184,431.888397 343.365875,432.227905 
	C347.835052,432.978851 349.269745,436.679749 346.533905,440.304047 
	C341.763916,446.623108 339.665649,447.341034 331.863129,445.186951 
	C331.478424,448.826813 333.433624,451.760223 335.308075,454.194916 
	C347.049774,469.445862 361.324890,480.793579 381.427979,482.542389 
	C383.778900,482.746887 385.787872,483.666748 386.063416,486.230377 
	C386.359344,488.983307 384.642548,490.529144 382.093750,491.164124 
	C380.803925,491.485382 379.466858,491.945068 378.174683,491.879425 
	C358.551575,490.882141 340.126923,497.093475 321.348663,501.203735 
	C298.957153,506.104889 276.587524,511.063232 253.958008,514.862244 
	C233.637878,518.273560 213.358841,521.939270 192.762405,522.960815 
	C178.686920,523.658997 164.609360,524.907227 150.459076,523.355530 
	C119.553787,519.966553 107.461075,491.932281 110.227615,470.975769 
	C111.706764,459.771301 114.827126,449.393372 122.947098,441.472046 
	C129.773697,434.812439 137.540817,428.864532 146.530426,425.435486 
	C158.147598,421.004150 169.785889,416.498413 182.441422,415.358612 
	C194.531540,414.269714 206.506775,413.292480 218.709579,414.352356 
	C229.647842,415.302368 240.396866,416.612061 251.028137,419.446350 
	C264.526947,423.045074 276.730865,429.383606 288.777832,436.153534 
	C302.840942,444.056458 315.541412,454.018921 328.949982,462.912018 
	C332.093872,464.997162 334.725403,467.872437 337.513550,470.469116 
	C338.983887,471.838501 340.558044,472.857483 343.218384,473.492889 
	C337.661987,465.364166 330.163727,459.813171 325.319702,451.991302 
	C322.167877,446.901794 320.218628,442.328339 324.761292,437.067169 
	C326.429779,435.134796 325.764648,432.626434 325.108002,430.362030 
	C323.998779,426.537079 323.727966,422.828949 326.858398,418.968506 
	C322.724640,416.727112 321.060272,411.686066 315.683105,411.209381 
	C313.714844,411.034912 312.856323,409.175995 311.954010,407.505829 
	C304.832794,394.325104 303.837158,380.366089 306.886353,366.010101 
	C310.017334,351.269135 314.845764,337.113373 323.880951,324.834473 
	C331.186646,314.905884 339.294006,305.603424 348.808716,297.706085 
	C354.542847,292.946716 360.085999,287.943726 366.754181,284.306091 
	C370.991394,281.994568 375.526672,280.205933 379.876801,278.547882 
	C386.072113,276.186554 391.819641,272.662964 398.204742,271.005249 
	C404.039246,269.490448 405.622650,265.905121 405.719696,260.461182 
	C406.038391,242.578796 409.252228,225.036346 414.849915,208.192032 
	C418.443146,197.379471 420.759277,186.074081 425.846771,175.774902 
	C429.417572,168.546204 433.234131,161.438828 436.947845,154.280853 
	C437.668274,152.892303 438.824738,152.019363 440.234558,151.352524 
	C443.853180,149.640884 446.954498,147.608765 445.535278,142.707077 
	C445.240356,141.688385 453.437592,131.452606 454.443939,131.306229 
	C455.494568,131.153427 456.439758,131.517181 457.110352,132.336472 
	C457.860779,133.253326 457.644592,134.390381 457.016602,135.124207 
	C450.683746,142.524475 446.601593,151.332825 441.979401,159.740585 
	C436.216217,170.223816 430.409668,180.635956 425.730286,191.805664 
	C419.937744,205.632614 417.675140,220.113144 414.072540,234.347046 
	C411.436340,244.762680 409.802063,255.409683 410.066315,266.735260 
	C416.848236,265.999664 423.467072,265.693848 429.922058,264.501251 
	C446.689240,261.403381 463.294739,263.234772 479.834656,265.825684 
	C495.748901,268.318542 511.326355,272.235474 525.818848,279.605286 
	C538.530945,286.069672 551.484497,292.201599 563.226501,300.283234 
	C567.777893,303.415833 570.165283,309.549805 574.494324,313.175110 
	C587.343506,323.935516 593.943054,338.596466 600.062744,353.388916 
	C602.794739,359.992859 605.373596,367.234192 603.825256,376.268158 
	C600.676270,371.089508 600.248901,366.291412 599.119568,361.877167 
	C595.800293,348.902283 589.256042,337.558868 581.812866,326.715057 
	C575.773499,317.916473 567.655029,310.843842 559.998413,303.541901 
	C555.441528,299.196198 549.428406,296.051025 543.779663,293.106781 
	C529.636353,285.735016 515.497437,277.990601 499.979980,273.902252 
	C479.961121,268.628052 459.415527,265.780121 438.791382,268.177338 
	C431.417542,269.034424 423.785675,268.767151 416.447418,271.113770 
	C410.590759,272.986694 408.813171,274.046967 409.326935,280.114349 
	C410.323425,291.882111 411.198456,303.667938 413.344635,315.313721 
	C415.997864,329.710632 419.228302,344.041016 424.517120,357.633545 
	C431.389526,375.296204 439.876831,392.130524 453.371857,406.122498 
	C463.965027,417.105743 475.725189,426.035309 489.948517,431.457336 
	C497.560638,434.359100 505.738281,435.012177 513.794006,435.952179 
	C515.396851,436.139221 517.141052,435.882782 518.175537,437.530487 
	C517.777649,439.589539 516.229248,440.014679 514.756714,439.834625 
	C503.719635,438.485107 492.579254,437.252411 482.309082,432.726990 
	C467.878876,426.368439 456.301636,416.244629 446.349640,404.119049 
	C437.214172,392.988373 429.668579,380.828247 424.159485,367.606262 
	C418.548401,354.139343 414.080933,340.266998 411.477997,325.768799 
	C409.746643,316.125519 406.948608,306.624054 406.834198,296.788239 
	C406.775055,291.706238 406.186157,286.873230 405.065369,281.950928 
	C403.779602,276.304321 400.882385,274.121552 395.729462,276.694916 
	C387.145172,280.981903 377.885498,283.846710 369.771271,289.098206 
	C355.012115,298.650238 341.557404,309.760956 331.257477,324.087860 
	C323.437653,334.965027 318.559814,347.274109 314.772949,360.240753 
	C312.047119,369.574463 310.125793,378.622406 311.195496,388.276794 
	C311.399170,390.115295 311.750763,391.852814 312.372925,393.600250 
	C314.410370,399.322510 314.283569,399.212097 319.466553,396.117981 
	C324.592346,393.058014 329.875061,395.782227 335.006287,396.398193 
	C337.686157,396.719910 340.270996,398.414948 342.740387,399.776886 
	C346.873230,402.056213 349.410522,405.282959 347.955688,410.385834 
	C346.633942,415.022064 343.820007,417.877380 338.197327,417.755096 
	C333.413086,414.324402 335.826599,410.706299 337.248230,407.036072 
	C333.338898,404.442657 329.697540,402.298828 324.638458,404.038849 
	C327.292297,411.018463 331.818634,415.309814 338.026001,417.983398 
M341.343994,490.654968 
	C345.805481,489.453949 350.825592,490.260620 355.281158,487.031860 
	C349.480499,483.436127 343.730530,480.632721 338.877563,476.717499 
	C325.530304,465.949402 311.518311,456.241180 296.993988,447.114502 
	C281.217163,437.200714 265.111542,428.341644 246.937561,423.668365 
	C229.941208,419.297913 212.769882,417.964874 195.220718,418.992065 
	C176.780380,420.071442 159.684006,424.523132 143.689392,434.031738 
	C129.039139,442.741119 119.363335,454.409119 117.566727,471.714020 
	C115.252701,494.002686 126.898178,515.196533 154.304977,516.508850 
	C169.893814,517.255249 185.448273,516.284241 201.033310,514.976135 
	C222.860519,513.144165 244.286316,508.944550 265.715027,504.949585 
	C279.053711,502.462891 292.423157,499.930084 305.720551,497.115479 
	C317.245850,494.675964 328.911896,492.901642 341.343994,490.654968 
M347.756226,477.864868 
	C352.532623,481.369507 355.920135,487.712280 363.419800,485.688965 
	C359.783386,483.167175 355.869232,481.183350 351.963898,479.182373 
	C351.086395,478.732819 350.278320,478.118866 349.364441,477.779449 
	C348.780670,477.562683 348.291901,475.718201 347.756226,477.864868 
z"/>
<path fill="#000000" opacity="1.000000" stroke="none" 
	d="
M475.321014,110.280624 
	C472.498993,114.120331 468.325317,116.358360 466.503754,120.659126 
	C465.738251,122.466545 463.755188,122.800629 462.256317,121.815445 
	C460.237885,120.488731 460.935974,118.800697 462.335846,117.210480 
	C466.036499,113.006668 469.594421,108.675766 473.341705,104.514847 
	C477.429352,99.975998 481.794312,95.681778 485.777008,91.055901 
	C487.468964,89.090805 489.106049,88.110077 491.226746,89.706955 
	C493.872406,91.699188 491.839233,93.732071 490.515839,95.173409 
	C487.313751,98.660797 483.992554,102.091675 480.352722,105.102066 
	C478.524323,106.614296 477.672699,108.898544 475.321014,110.280624 
z"/>
<path fill="#000000" opacity="1.000000" stroke="none" 
	d="
M441.325806,643.438782 
	C439.055267,646.513428 436.268402,646.343384 434.302643,644.259521 
	C432.450073,642.295654 433.535431,639.462036 434.773895,637.314392 
	C435.757904,635.608032 437.557037,635.622131 439.103638,636.780090 
	C441.213928,638.360107 443.780640,639.858032 441.325806,643.438782 
z"/>
<path fill="#000000" opacity="1.000000" stroke="none" 
	d="
M444.969788,589.057922 
	C447.855896,586.906433 449.584229,588.484863 450.899384,590.529602 
	C452.050781,592.319763 452.011322,594.526978 450.625977,596.081238 
	C449.342743,597.520996 447.392548,596.692078 446.073578,595.829712 
	C443.633240,594.234192 443.275543,591.926697 444.969788,589.057922 
z"/>
<path fill="#000000" opacity="1.000000" stroke="none" 
	d="
M478.476440,111.559723 
	C479.848206,109.741180 480.764435,107.773285 483.487793,108.355621 
	C484.764801,111.517494 484.243408,114.375328 480.849457,115.416557 
	C478.571045,116.115532 477.871033,114.036652 478.476440,111.559723 
z"/>
<path fill="#000000" opacity="1.000000" stroke="none" 
	d="
M460.397675,128.338440 
	C457.774353,128.615875 456.545380,127.658318 457.169556,125.278465 
	C457.542389,123.856834 458.768219,122.881790 460.149994,123.714134 
	C461.957855,124.803131 462.283661,126.489395 460.397675,128.338440 
z"/>
</svg>